# xmcd CD database file
#
# Track frame offsets:
#	150
#	22715
#	41760
#
# Disc length: 807 seconds
#
# Revision: 1
# Processed by: cddbd v1.5.2PL0 Copyright (c) Steve Scherf et al.
# Submitted via: CDex 1.70beta3
#
DISCID=17032503
DTITLE=phatmans after school - ツキヨミ -EP
DYEAR=2013
DGENRE=J-Rock
TTITLE0=ツキヨミ
TTITLE1=アオノヒメ
TTITLE2=人類への過程 -PandaBoY remix-
EXTD=YEAR: 2013
EXTT0=
EXTT1=
EXTT2=
PLAYORDER=
